<?xml version="1.0" encoding="utf-8"?>
<!-- Generator: Adobe Illustrator 25.3.1, SVG Export Plug-In . SVG Version: 6.00 Build 0)  -->
<svg version="1.1" id="圖層_1" xmlns="http://www.w3.org/2000/svg" xmlns:xlink="http://www.w3.org/1999/xlink" x="0px" y="0px"
	 viewBox="0 0 1920 1080" style="enable-background:new 0 0 1920 1080;" xml:space="preserve">
<style type="text/css">
	.st0{fill:#CABDBD;}
	.st1{fill:none;stroke:#CABDBD;stroke-width:2;stroke-miterlimit:10;}
</style>
<g>
	<path class="st0" d="M1919.8,885.8c-20.4-3-40.8-5.9-61.2-8.9c-27.3-4-54.7-8-82-12c-33.1-4.9-66.1-9.8-99.2-14.6
		c-28.7-4.2-57.4-8.4-86.1-12.6c-33.3-4.9-66.7-9.8-100-14.7c-29-4.2-58-8.4-86.9-12.6c-33.1-4.8-66.1-9.8-99.2-14.6
		c-33.1-4.8-66.1-9.6-99.2-14.4c-28.7-4.2-57.4-8.4-86.1-12.6c-27.8-4.1-55.5-8.1-83.3-12.2c-28.8-4.2-57.7-8.5-86.5-12.7
		c-27.6-4-55.2-8-82.9-12c-12.2-1.8-24.5-3.6-36.7-5.5c-3.2-0.5-5.8-0.3-7.2,2.9c-3.9,8.6-10.4,10-19.4,9.3
		c-38.2-2.7-76.4-4.6-114.6-6.8c-19.9-1.2-39.8-2.5-59.7-3.7c-0.9-0.1-1.9,0.1-2.9,0.9c9.5,1.1,19.1,2.2,28.6,3.3
		c26.7,3,53.3,6,80,8.9c23.7,2.6,47.3,5.1,71,7.7c4.5,0.5,9,1.3,13.5,1.5c1.6,0.1,3.5-1,4.8-2.1c1.7-1.5,3.2-3.5,4.3-5.5
		c2.9-5.8,7.3-6.3,13.3-5.3c37.9,6.8,75.8,13.2,113.8,19.7c39.4,6.8,78.8,13.6,118.3,20.4c40.8,7,81.6,13.9,122.4,20.9
		c39.2,6.7,78.3,13.5,117.5,20.2c44.3,7.6,88.6,15.2,132.9,22.8c39.1,6.7,78.3,13.5,117.4,20.3c39.6,6.8,79.1,13.4,118.7,20.2
		c40.6,7,81.3,14,121.9,21c37.3,6.4,74.5,12.8,111.8,19.2c1.1,0.2,2.2,0,3.3,0c0,0.8,0,1.7,0,2.5c-30.5-5.3-61-10.5-91.5-15.8
		c-29.7-5.1-59.3-10.2-89-15.3c-39.4-6.8-78.9-13.5-118.3-20.3c-39.2-6.7-78.3-13.5-117.5-20.2c-34.7-6-69.4-11.9-104.1-17.8
		c-34.3-5.9-68.6-11.8-102.8-17.7c-34.5-5.9-69.1-11.9-103.6-17.8c-39.6-6.8-79.1-13.7-118.7-20.4c-39.4-6.8-78.9-13.4-118.3-20.2
		c-39-6.7-78-13.5-117-20.3c-3-0.5-5.4-0.3-7,2.6c-0.5,0.8-1.2,1.5-1.7,2.3c-7.1,9.3-7.1,9.1-18.7,7.7c-24-2.8-48.1-5.4-72.2-8.1
		c-26-2.9-51.9-5.8-77.9-8.7c-10.1-1.1-20.2-2.2-30.4-2.5c4.5,0.8,9,1.7,13.5,2.4c32,5.1,64.1,10.2,96.1,15.3
		c28.2,4.5,56.5,9,84.7,13.6c3.2,0.5,5.6,0.2,7.3-2.9c0.6-1.2,1.6-2.2,2.5-3.3c6-7.9,6-7.9,15.3-6c31.4,6.3,62.8,12.5,94.2,18.7
		c34.5,6.8,69,13.7,103.6,20.4c39.8,7.8,79.6,15.6,119.4,23.4c44,8.6,87.9,17.3,131.9,26c52.6,10.4,105.2,20.7,157.8,31
		c53.8,10.6,107.6,21.2,161.4,31.8c56.9,11.2,113.8,22.3,170.7,33.5c33.8,6.7,67.7,13.4,101.5,20.1c9.6,1.9,19.2,3.5,28.8,5.3
		c0,0.8,0,1.7,0,2.5c-0.9-0.3-1.8-0.7-2.7-0.9c-33.9-6.7-67.7-13.3-101.6-19.9c-53.8-10.6-107.7-21.1-161.5-31.7
		c-38.4-7.6-76.9-15.2-115.3-22.8c-45.4-8.9-90.9-17.8-136.4-26.7c-38.3-7.5-76.6-15.2-114.9-22.8c-61.1-12-122.2-24-183.3-36
		c-48.2-9.5-96.3-19-144.5-28.5c-37.4-7.4-74.7-14.7-112.1-22.2c-4.2-0.9-7-0.2-9.2,3.6c-1.7,2.8-3.8,5.4-6.1,7.8
		c-1,1-2.9,1.9-4.3,1.7c-32.6-5.1-65.2-10.4-97.7-15.6c-22-3.5-44-7.1-66-10.6c-5.9-0.9-11.8-1.8-17.7-2.7c1.4,1.3,2.9,1.7,4.5,2.1
		c12.3,2.5,24.5,4.9,36.8,7.4c47.7,9.6,95.4,19.2,143.1,28.9c3.9,0.8,6.4,0.3,8.6-3.2c1.8-2.9,4.6-5.2,6.4-8.1
		c1.9-3,4.2-3.2,7.3-2.5c45.6,10.2,91.2,20.4,136.8,30.6c87.6,19.6,175.2,39.3,262.8,58.8c73.8,16.5,147.6,32.9,221.4,49.4
		c67.5,15.1,134.9,30.2,202.4,45.3c58.1,13,116.2,26,174.3,38.9c22.9,5.1,45.9,10.2,68.8,15.3c0,0.8,0,1.7,0,2.5c-1-0.4-2-0.8-3.1-1
		c-29.4-6.6-58.7-13.2-88.1-19.8c-65.5-14.6-130.9-29.3-196.4-43.9c-70.7-15.8-141.4-31.5-212.1-47.3c-67.1-15-134.1-30-201.2-45
		c-48.1-10.8-96.3-21.5-144.5-32.3c-49.1-11-98.2-22-147.3-32.9c-24.3-5.4-48.6-10.8-72.8-16.4c-3.4-0.8-5.7-0.4-7.7,2.6
		c-2.4,3.5-5.2,6.8-8.1,9.9c-1,1-3,1.7-4.4,1.5c-10.1-1.9-20.2-4-30.3-6c-45.8-9.2-91.6-18.5-137.4-27.7c-6.2-1.2-12.4-2.4-18.6-3.7
		c-0.1,0.3-0.1,0.7-0.2,1c6.4,1.5,12.8,3,19.2,4.5c57,13.8,114.1,27.5,171.1,41.4c2.9,0.7,4.6,0.1,6.4-2.1c2.8-3.5,5.8-7,9-10.2
		c1.1-1.1,3.3-1.7,4.9-1.5c4.9,0.9,9.6,2.3,14.4,3.5c88.8,22.2,177.6,44.4,266.4,66.6c82,20.5,164,41,246,61.5
		c82.7,20.7,165.3,41.3,248,62c67.3,16.8,134.7,33.6,202,50.5c28.3,7.1,56.5,14.1,84.8,21.1c0,0.6,0,1.1,0,1.7
		c-1.3-0.2-2.7-0.4-4-0.7c-113.6-28.4-227.3-56.8-340.9-85.2c-98.3-24.6-196.6-49.1-294.9-73.6c-96.3-24-192.6-48.1-288.8-72.1
		c-43.9-11-87.7-21.9-131.6-33c-2.9-0.7-4.6-0.2-6.3,2.1c-2.3,2.9-5.1,5.5-7.2,8.5c-2.4,3.3-5.1,3.8-8.9,2.9
		c-58.6-14.3-117.3-28.5-175.9-42.7c-3-0.7-6.1-1.3-9.2-2c0.5,0.9,1.1,1.1,1.8,1.3c25.9,7.3,51.9,14.6,77.8,21.9
		c37.5,10.5,74.9,20.9,112.4,31.5c2.8,0.8,4.9,0.6,7-1.6c3-3.2,6.7-5.8,9.5-9.1c2.6-3,5.3-2.9,8.7-2c47.8,13.3,95.6,26.6,143.4,39.9
		c68.2,18.9,136.4,37.7,204.7,56.6c51.3,14.2,102.5,28.4,153.8,42.6c44.2,12.3,88.5,24.5,132.7,36.8c54,15,108.1,29.9,162.1,44.9
		c48.2,13.3,96.4,26.7,144.7,40c36.4,10.1,72.8,20.2,109.3,30.4c0,0.6,0,1.1,0,1.7c-20.8-5.7-41.6-11.4-62.4-17.1
		c-70.1-19.4-140.1-38.8-210.2-58.2c-67.2-18.6-134.3-37.3-201.5-55.9c-63.6-17.6-127.2-35.1-190.8-52.7
		c-83.1-23-166.1-46-249.1-69.1c-45.8-12.7-91.7-25.3-137.5-38.1c-2.8-0.8-4.6-0.4-6.5,1.6c-3,3.2-6.5,5.9-9.6,9.1
		c-2.4,2.5-4.8,3-8.1,2.1c-34.1-9.6-68.3-19-102.5-28.6c-47.8-13.3-95.5-26.8-143.3-40.1c-22.9-6.3-46-12.1-69-18.2
		c-1.9-0.5-3.9-1.3-5.6-2.5c-65.6-46-131.3-91.8-196.7-138C241,512.6,155.3,451.3,69.3,390.4c-59.4-42.1-119-83.9-178.5-125.8
		c-0.3-0.2-0.6-0.5-0.5-1.6c1.6,0.8,3.4,1.3,4.9,2.3c29.8,20.8,59.6,41.5,89.3,62.5c111.2,78.9,222.4,158,333.6,236.8
		c60.7,43.1,121.7,85.8,182.5,128.7c1.2,0.8,2.5,1.6,4.3,1.7c-1.7-1.5-3.5-3.1-5.2-4.6C423,625.6,346.8,560.4,269.8,496.1
		c-39.7-33.2-80.7-64.8-121.1-97.1c-55.5-44.3-110.9-88.7-166.4-133c-0.8-0.7-1.6-1.4-2-3c1.6,0.9,3.3,1.7,4.7,2.8
		c34,27.1,68,54.3,101.9,81.4c60.3,48.2,120.9,96.1,180.8,144.8c35.9,29.2,70.7,59.6,106,89.5c50.6,42.9,101.2,85.8,151.8,128.6
		c1.2,1,2.8,1.8,4.3,2.2c13.7,3.5,27.4,7.4,41.2,10.2c5.5,1.1,11.5,0,17.2-0.3c15.2-0.9,30.5-2,45.7-3.1c24-1.6,48.1-3.2,72.1-4.8
		c18-1.2,36-2.3,54-3.5c10.3-0.7,20.6-1.4,30.9-1.8c4.9-0.2,8.9-1.7,11.7-5.6c3.8-5.1,8.7-5.4,14.6-4.8c30.8,3.2,61.6,6,92.4,9
		c26.6,2.6,53.1,5.3,79.7,7.9c21.4,2.1,42.7,4,64.1,6.1c26.8,2.6,53.7,5.3,80.5,8c21.1,2.1,42.2,4,63.3,6.1
		c29.7,2.9,59.4,5.9,89.1,8.8c24.1,2.3,48.2,4.6,72.3,6.9c23.8,2.3,47.6,4.7,71.4,7.1c21.4,2.1,42.7,4.1,64.1,6.1
		c21.4,2.1,42.7,4.3,64.1,6.4c18.2,1.8,36.4,3.4,54.6,5.2c21.1,2.1,42.2,4.2,63.2,6.3c18.3,1.8,36.7,3.5,55,5.3
		c24.2,2.3,48.5,4.7,72.7,7c18.3,1.8,36.7,3.6,55,5.4c18.6,1.8,37.2,3.7,55.8,5.5c1.6,0.2,3.3,0.1,4.9,0.1c0,0.8,0,1.7,0,2.5
		c-13.5-1.4-27.1-2.9-40.6-4.3c-24.4-2.4-48.7-4.8-73.1-7.2c-18.1-1.8-36.2-3.4-54.2-5.2c-21.4-2.1-42.7-4.2-64.1-6.3
		c-21.4-2.1-42.7-4.1-64.1-6.2c-24.1-2.3-48.2-4.8-72.3-7.1c-18.1-1.8-36.2-3.5-54.2-5.2c-24.2-2.3-48.5-4.7-72.7-7
		c-20.9-2-41.9-4.1-62.8-6.2c-24.4-2.4-48.7-4.7-73.1-7.1c-21.4-2.1-42.7-4.1-64.1-6.2c-27.1-2.7-54.2-5.4-81.3-8
		c-20.7-2-41.4-4-62-6c-24.5-2.4-49-4.8-73.5-7.2c-20.4-2-40.8-4-61.2-6c-22-2.2-44.1-4.4-66.1-6.5c-22.7-2.2-45.5-4.4-68.2-6.5
		c-1.4-0.1-3.5,0.5-4.3,1.6c-6.3,8.1-15,9.2-24.5,9.7c-33.2,1.8-66.5,4.3-99.7,6.4c-21.4,1.4-42.8,2.7-64.3,4.1
		c-1.4,0.1-2.7,0.3-4.1,1.1c1.5,0.1,2.9,0.2,4.4,0.2c42,0.1,84,0.2,126,0.3c19.3,0,38.6,0.2,57.8,0.1c2,0,4.2-1.4,5.8-2.8
		c1.8-1.5,3.2-3.5,4.3-5.5c2.5-4.5,6-4.9,10.7-4.3c28.8,3.7,57.6,7.1,86.4,10.6c25.8,3.2,51.6,6.4,77.4,9.5
		c24,2.9,48.1,5.8,72.1,8.7c23.3,2.8,46.7,5.7,70,8.5c23.7,2.9,47.5,5.8,71.2,8.7c28.5,3.5,57.1,7,85.6,10.5
		c23.8,2.9,47.5,5.7,71.3,8.6c25.7,3.1,51.3,6.4,77,9.5c26.3,3.2,52.7,6.3,79.1,9.5c25.4,3.1,50.8,6.2,76.2,9.3
		c24.4,3,48.9,5.9,73.3,8.9c27.6,3.4,55.1,6.8,82.7,10.1c26.2,3.2,52.4,6.4,78.6,9.6c25.9,3.2,51.9,6.4,77.8,9.5
		c5.6,0.7,11.2,1.3,16.8,1.9c0,0.6,0,1.1,0,1.7c-13.7-1.6-27.3-3-41-4.7c-24.2-2.9-48.3-5.8-72.5-8.8c-27.9-3.4-55.7-6.8-83.5-10.2
		c-24-2.9-48.1-5.8-72.1-8.8c-25.8-3.2-51.6-6.4-77.4-9.5c-19.4-2.4-38.8-4.6-58.2-7c-25.5-3.1-51-6.3-76.6-9.4
		c-26.5-3.2-53-6.4-79.5-9.6c-25.5-3.1-51-6.3-76.6-9.4c-24.3-3-48.6-5.9-72.9-8.8c-23.2-2.8-46.4-5.7-69.6-8.5
		c-23.9-2.9-47.8-5.8-71.7-8.8c-25.7-3.1-51.3-6.3-77-9.4c-24.2-2.9-48.3-5.9-72.5-8.8c-23.8-2.9-47.5-5.8-71.3-8.7
		c-8.9-1.1-17.7-2.2-26.6-3.2c-1.2-0.1-2.6,0.9-3.9,1.5c-0.2,0.1-0.4,0.4-0.5,0.6c-4.6,9.5-12.4,11-22.4,10.9
		c-55.1-0.6-110.2-0.6-165.2-0.7c-1.2,0-2.4,0.1-3.6,1.1c5.1,0.4,10.1,0.9,15.2,1.1c26.5,1.5,53,3,79.6,4.5
		c29.7,1.7,59.4,3.4,89,5.4c4.3,0.3,7.5-0.4,9.5-4.5c3.6-7.6,8.9-8.7,17.3-7.4c34.9,5.7,69.9,10.3,104.9,15.4
		c40.4,5.9,80.8,12,121.2,17.9c46.3,6.8,92.5,13.4,138.8,20.1c43.1,6.3,86.3,12.6,129.4,19c34.7,5.1,69.4,10.3,104.1,15.4
		c40.5,5.9,81.1,11.7,121.6,17.7c40.4,5.9,80.8,11.9,121.2,17.9c40.4,5.9,80.8,11.7,121.2,17.7c40.5,5.9,81.1,11.9,121.6,17.9
		C1919.8,884.7,1919.8,885.2,1919.8,885.8z"/>
	
		<rect x="541.9" y="533.6" transform="matrix(0.8977 -0.4406 0.4406 0.8977 -247.0342 366.903)" class="st1" width="249.3" height="363.7"/>
	
		<rect x="506.8" y="611.9" transform="matrix(0.8977 -0.4406 0.4406 0.8977 -264.6815 336.0737)" class="st1" width="169" height="252.2"/>
	<line class="st1" x1="474.6" y1="607.1" x2="459.9" y2="662"/>
	<line class="st1" x1="699.4" y1="495.4" x2="611.7" y2="587.6"/>
	<line class="st1" x1="722.8" y1="814" x2="858.6" y2="823.7"/>
	<line class="st1" x1="571.1" y1="888.5" x2="634.8" y2="933.6"/>
</g>
</svg>
