<?xml version="1.0" encoding="utf-8"?>
<!-- Generator: Adobe Illustrator 25.3.1, SVG Export Plug-In . SVG Version: 6.00 Build 0)  -->
<svg version="1.1" id="圖層_1" xmlns="http://www.w3.org/2000/svg" xmlns:xlink="http://www.w3.org/1999/xlink" x="0px" y="0px"
	 viewBox="0 0 135 50" style="enable-background:new 0 0 135 50;" xml:space="preserve">
<style type="text/css">
	.st0{fill:#FF8200;}
</style>
<g>
	<g>
		<path class="st0" d="M116.8,12.4H107h-1.6h-3.2v25.3h4.7V17.1h9.9c3.3,0,5.9,2.6,5.9,5.9v14.6h4.7V23
			C127.5,17.1,122.7,12.4,116.8,12.4z"/>
		<path class="st0" d="M89.2,12.4h-4c-5.9,0-10.7,4.8-10.7,10.7V27c0,5.9,4.8,10.7,10.7,10.7h4c5.9,0,10.7-4.8,10.7-10.7V23
			C99.9,17.1,95.1,12.4,89.2,12.4z M95.1,27c0,3.3-2.6,5.9-5.9,5.9h-4c-3.3,0-5.9-2.7-5.9-5.9V23c0-3.3,2.6-5.9,5.9-5.9h4
			c3.3,0,5.9,2.6,5.9,5.9l0,0V27L95.1,27z"/>
		<path class="st0" d="M72.2,23L72.2,23c0-5.9-4.8-10.7-10.7-10.7H47v37.1h2.4c1.3,0,2.4-1.1,2.4-2.4l0,0v-30h9.9
			c3.3,0,5.9,2.6,5.9,5.9V27c0,3.3-2.7,5.9-5.9,5.9h-4.7h-2.4v2.4l0,0c0,0,0,0,0,0c0,1.3,1.1,2.4,2.4,2.4l0,0h4.7
			c5.9,0,10.7-4.8,10.7-10.7h0V23z"/>
		<path class="st0" d="M49.3,0.5h-3.6c-1,0-1.9,0.7-2.2,1.6l0,0l-12.4,29c0,0,0,0,0,0c-0.5,1.1-1.5,1.8-2.7,1.8
			c-1.2,0-2.3-0.7-2.7-1.8c0,0,0,0,0,0L13.3,2.2c-0.3-1-1.2-1.7-2.3-1.7c0,0,0,0,0,0l0,0H7.5l13.9,32.4c0,0,0,0,0,0.1l0.1,0.1h0
			c1.2,2.7,3.9,4.5,7,4.5c3.2,0,5.9-1.9,7.1-4.7l0,0L49.3,0.5z"/>
	</g>
</g>
</svg>
